<?xml version="1.0" encoding="UTF-8" standalone="no"?>
<!DOCTYPE svg PUBLIC "-//W3C//DTD SVG 1.1//EN" "http://www.w3.org/Graphics/SVG/1.1/DTD/svg11.dtd">
<svg width="100%" height="100%" viewBox="0 0 363 63" version="1.1" xmlns="http://www.w3.org/2000/svg" xmlns:xlink="http://www.w3.org/1999/xlink" xml:space="preserve" xmlns:serif="http://www.serif.com/" style="fill-rule:evenodd;clip-rule:evenodd;stroke-linecap:round;stroke-linejoin:round;stroke-miterlimit:1.5;">
    <g transform="matrix(1,0,0,1,-4464.25,-38.7105)">
        <g transform="matrix(1,0,0,1,717.583,-2.27374e-13)">
            <g transform="matrix(1,0,0,1,1331.69,2.27374e-13)">
                <path d="M2776.26,55L2776.26,85C2776.26,93.279 2769.54,100 2761.26,100L2431.26,100C2422.98,100 2416.26,93.279 2416.26,85L2416.26,55C2416.26,46.721 2422.98,40 2431.26,40L2761.26,40C2769.54,40 2776.26,46.721 2776.26,55Z" style="fill:none;"/>
                <clipPath id="_clip1">
                    <path d="M2776.26,55L2776.26,85C2776.26,93.279 2769.54,100 2761.26,100L2431.26,100C2422.98,100 2416.26,93.279 2416.26,85L2416.26,55C2416.26,46.721 2422.98,40 2431.26,40L2761.26,40C2769.54,40 2776.26,46.721 2776.26,55Z"/>
                </clipPath>
                <g clip-path="url(#_clip1)">
                    <g transform="matrix(0.592105,0,0,0.592105,1000.58,28.5526)">
                        <g transform="matrix(44.2012,0,0,44.2012,2420.31,85.7089)">
                            <path d="M0.412,0.01C0.359,0.01 0.311,0.001 0.266,-0.017C0.222,-0.036 0.183,-0.061 0.15,-0.094C0.117,-0.126 0.091,-0.165 0.073,-0.209C0.055,-0.252 0.046,-0.3 0.046,-0.351C0.046,-0.402 0.056,-0.449 0.074,-0.492C0.092,-0.536 0.118,-0.574 0.151,-0.606C0.185,-0.639 0.224,-0.664 0.269,-0.682C0.313,-0.7 0.362,-0.709 0.414,-0.709C0.45,-0.709 0.486,-0.704 0.52,-0.694C0.554,-0.684 0.584,-0.67 0.612,-0.652C0.639,-0.634 0.662,-0.614 0.68,-0.591L0.598,-0.505C0.58,-0.523 0.56,-0.538 0.541,-0.55C0.521,-0.562 0.5,-0.572 0.479,-0.578C0.458,-0.585 0.436,-0.588 0.413,-0.588C0.38,-0.588 0.349,-0.582 0.321,-0.57C0.293,-0.558 0.268,-0.541 0.246,-0.52C0.225,-0.499 0.209,-0.474 0.197,-0.445C0.185,-0.416 0.179,-0.385 0.179,-0.351C0.179,-0.318 0.185,-0.287 0.198,-0.258C0.21,-0.229 0.227,-0.203 0.249,-0.181C0.271,-0.159 0.297,-0.142 0.326,-0.13C0.355,-0.117 0.386,-0.111 0.418,-0.111C0.443,-0.111 0.466,-0.115 0.487,-0.122C0.509,-0.129 0.528,-0.139 0.544,-0.153C0.56,-0.166 0.573,-0.181 0.582,-0.198C0.592,-0.216 0.596,-0.234 0.596,-0.254L0.596,-0.276L0.614,-0.255L0.407,-0.255L0.407,-0.371L0.724,-0.371C0.725,-0.364 0.726,-0.356 0.727,-0.347C0.728,-0.338 0.728,-0.329 0.729,-0.321C0.729,-0.312 0.729,-0.305 0.729,-0.299C0.729,-0.253 0.721,-0.212 0.705,-0.174C0.689,-0.136 0.666,-0.104 0.638,-0.076C0.609,-0.049 0.575,-0.028 0.537,-0.013C0.498,0.002 0.457,0.01 0.412,0.01Z" style="fill:rgb(194,81,38);fill-rule:nonzero;"/>
                        </g>
                        <g transform="matrix(44.2012,0,0,44.2012,2449.93,85.7089)">
                            <path d="M0.255,0.01C0.217,0.01 0.184,0.002 0.156,-0.016C0.128,-0.033 0.107,-0.057 0.092,-0.089C0.077,-0.12 0.07,-0.158 0.07,-0.202L0.07,-0.527L0.193,-0.527L0.193,-0.228C0.193,-0.2 0.197,-0.177 0.206,-0.157C0.215,-0.137 0.227,-0.122 0.244,-0.111C0.26,-0.1 0.28,-0.095 0.304,-0.095C0.321,-0.095 0.337,-0.098 0.352,-0.104C0.366,-0.109 0.378,-0.117 0.389,-0.127C0.399,-0.138 0.408,-0.15 0.414,-0.164C0.42,-0.179 0.423,-0.194 0.423,-0.211L0.423,-0.527L0.546,-0.527L0.546,-0L0.426,-0L0.424,-0.11L0.446,-0.122C0.438,-0.097 0.425,-0.074 0.406,-0.054C0.387,-0.035 0.364,-0.019 0.338,-0.007C0.312,0.004 0.284,0.01 0.255,0.01Z" style="fill:rgb(194,81,38);fill-rule:nonzero;"/>
                        </g>
                        <g transform="matrix(44.2012,0,0,44.2012,2472.78,85.7089)">
                            <path d="M0.086,-0L0.086,-0.527L0.209,-0.527L0.209,-0L0.086,-0ZM0.146,-0.639C0.121,-0.639 0.102,-0.645 0.089,-0.658C0.075,-0.67 0.068,-0.688 0.068,-0.71C0.068,-0.732 0.075,-0.749 0.089,-0.762C0.103,-0.775 0.122,-0.782 0.146,-0.782C0.171,-0.782 0.19,-0.776 0.204,-0.763C0.218,-0.751 0.225,-0.733 0.225,-0.71C0.225,-0.689 0.218,-0.672 0.204,-0.659C0.19,-0.646 0.171,-0.639 0.146,-0.639Z" style="fill:rgb(194,81,38);fill-rule:nonzero;"/>
                        </g>
                        <g transform="matrix(44.2012,0,0,44.2012,2481.27,85.7089)">
                            <path d="M0.271,0.01C0.228,0.01 0.188,-0.002 0.153,-0.026C0.117,-0.05 0.089,-0.083 0.068,-0.124C0.047,-0.166 0.036,-0.212 0.036,-0.265C0.036,-0.318 0.047,-0.365 0.068,-0.406C0.09,-0.447 0.118,-0.48 0.155,-0.503C0.192,-0.526 0.233,-0.538 0.279,-0.538C0.306,-0.538 0.33,-0.534 0.352,-0.526C0.374,-0.519 0.394,-0.508 0.41,-0.494C0.427,-0.48 0.441,-0.464 0.452,-0.446C0.463,-0.428 0.47,-0.409 0.474,-0.388L0.447,-0.395L0.447,-0.527L0.571,-0.527L0.571,-0L0.446,-0L0.446,-0.126L0.475,-0.131C0.47,-0.113 0.462,-0.095 0.45,-0.078C0.437,-0.061 0.422,-0.046 0.404,-0.033C0.385,-0.02 0.365,-0.01 0.343,-0.002C0.32,0.006 0.296,0.01 0.271,0.01ZM0.305,-0.099C0.334,-0.099 0.359,-0.106 0.381,-0.12C0.403,-0.134 0.42,-0.154 0.432,-0.179C0.444,-0.204 0.451,-0.232 0.451,-0.265C0.451,-0.297 0.444,-0.325 0.432,-0.35C0.42,-0.375 0.403,-0.394 0.381,-0.408C0.359,-0.422 0.334,-0.429 0.305,-0.429C0.276,-0.429 0.251,-0.422 0.23,-0.408C0.208,-0.394 0.191,-0.375 0.179,-0.35C0.167,-0.325 0.161,-0.297 0.161,-0.265C0.161,-0.232 0.167,-0.204 0.179,-0.179C0.191,-0.154 0.208,-0.134 0.23,-0.12C0.251,-0.106 0.276,-0.099 0.305,-0.099Z" style="fill:rgb(194,81,38);fill-rule:nonzero;"/>
                        </g>
                        <g transform="matrix(44.2012,0,0,44.2012,2505.18,85.7089)">
                        </g>
                        <g transform="matrix(44.2012,0,0,44.2012,2513.71,85.7089)">
                            <path d="M0.284,0.01C0.237,0.01 0.195,-0.002 0.158,-0.025C0.121,-0.049 0.092,-0.081 0.07,-0.123C0.049,-0.164 0.038,-0.211 0.038,-0.264C0.038,-0.317 0.049,-0.364 0.07,-0.405C0.091,-0.446 0.12,-0.479 0.157,-0.502C0.194,-0.526 0.236,-0.538 0.283,-0.538C0.308,-0.538 0.333,-0.534 0.356,-0.526C0.38,-0.518 0.401,-0.507 0.42,-0.494C0.439,-0.48 0.454,-0.465 0.465,-0.448C0.476,-0.431 0.482,-0.414 0.483,-0.397L0.45,-0.392L0.45,-0.74L0.573,-0.74L0.573,-0L0.454,-0L0.451,-0.124L0.475,-0.122C0.474,-0.105 0.468,-0.09 0.458,-0.074C0.447,-0.059 0.433,-0.045 0.415,-0.032C0.398,-0.019 0.377,-0.009 0.355,-0.001C0.332,0.006 0.308,0.01 0.284,0.01ZM0.308,-0.094C0.337,-0.094 0.362,-0.102 0.384,-0.116C0.406,-0.131 0.423,-0.151 0.435,-0.176C0.448,-0.202 0.454,-0.231 0.454,-0.264C0.454,-0.297 0.448,-0.326 0.435,-0.352C0.423,-0.377 0.406,-0.397 0.384,-0.412C0.362,-0.426 0.337,-0.433 0.308,-0.433C0.279,-0.433 0.254,-0.426 0.232,-0.412C0.21,-0.397 0.193,-0.377 0.181,-0.352C0.168,-0.326 0.162,-0.297 0.162,-0.264C0.162,-0.231 0.168,-0.202 0.181,-0.176C0.193,-0.151 0.21,-0.131 0.232,-0.116C0.254,-0.102 0.279,-0.094 0.308,-0.094Z" style="fill:rgb(194,81,38);fill-rule:nonzero;"/>
                        </g>
                        <g transform="matrix(44.2012,0,0,44.2012,2537.58,85.7089)">
                            <path d="M0.313,0.01C0.26,0.01 0.213,-0.002 0.172,-0.026C0.13,-0.049 0.098,-0.082 0.074,-0.123C0.05,-0.164 0.038,-0.211 0.038,-0.264C0.038,-0.317 0.05,-0.364 0.074,-0.405C0.098,-0.446 0.13,-0.479 0.172,-0.502C0.213,-0.526 0.26,-0.538 0.313,-0.538C0.365,-0.538 0.412,-0.526 0.453,-0.502C0.494,-0.479 0.527,-0.446 0.55,-0.405C0.574,-0.364 0.586,-0.317 0.586,-0.264C0.586,-0.211 0.574,-0.164 0.55,-0.123C0.527,-0.082 0.494,-0.049 0.453,-0.026C0.412,-0.002 0.365,0.01 0.313,0.01ZM0.313,-0.099C0.341,-0.099 0.367,-0.107 0.389,-0.121C0.412,-0.135 0.43,-0.155 0.442,-0.18C0.455,-0.205 0.461,-0.233 0.461,-0.264C0.461,-0.296 0.455,-0.324 0.442,-0.349C0.43,-0.374 0.412,-0.393 0.389,-0.408C0.367,-0.422 0.341,-0.429 0.313,-0.429C0.284,-0.429 0.258,-0.422 0.235,-0.407C0.212,-0.393 0.195,-0.373 0.182,-0.348C0.169,-0.324 0.163,-0.295 0.163,-0.264C0.163,-0.233 0.169,-0.205 0.182,-0.18C0.195,-0.155 0.212,-0.135 0.235,-0.121C0.258,-0.107 0.284,-0.099 0.313,-0.099Z" style="fill:rgb(194,81,38);fill-rule:nonzero;"/>
                        </g>
                        <g transform="matrix(44.2012,0,0,44.2012,2560.7,85.7089)">
                        </g>
                        <g transform="matrix(44.2012,0,0,44.2012,2569.23,85.7089)">
                            <path d="M0.094,-0L0.094,-0.7L0.375,-0.7C0.426,-0.7 0.472,-0.692 0.513,-0.675C0.554,-0.658 0.589,-0.634 0.619,-0.603C0.648,-0.571 0.671,-0.534 0.686,-0.492C0.702,-0.449 0.71,-0.402 0.71,-0.35C0.71,-0.298 0.702,-0.251 0.686,-0.208C0.671,-0.165 0.648,-0.128 0.619,-0.097C0.59,-0.066 0.554,-0.042 0.513,-0.025C0.472,-0.008 0.426,-0 0.375,-0L0.094,-0ZM0.224,-0.101L0.214,-0.12L0.37,-0.12C0.403,-0.12 0.432,-0.126 0.458,-0.136C0.483,-0.147 0.505,-0.162 0.523,-0.182C0.541,-0.202 0.555,-0.226 0.564,-0.254C0.573,-0.283 0.578,-0.315 0.578,-0.35C0.578,-0.385 0.573,-0.417 0.564,-0.445C0.555,-0.473 0.541,-0.498 0.523,-0.518C0.505,-0.538 0.483,-0.553 0.457,-0.564C0.432,-0.574 0.403,-0.58 0.37,-0.58L0.211,-0.58L0.224,-0.597L0.224,-0.101Z" style="fill:rgb(194,81,38);fill-rule:nonzero;"/>
                        </g>
                        <g transform="matrix(44.2012,0,0,44.2012,2598.22,85.7089)">
                            <path d="M0.072,-0L0.072,-0.527L0.193,-0.527L0.195,-0.359L0.178,-0.397C0.186,-0.423 0.198,-0.447 0.216,-0.469C0.234,-0.49 0.255,-0.507 0.279,-0.519C0.302,-0.532 0.327,-0.538 0.353,-0.538C0.364,-0.538 0.375,-0.537 0.386,-0.535C0.396,-0.533 0.405,-0.531 0.411,-0.528L0.378,-0.393C0.371,-0.397 0.362,-0.4 0.351,-0.403C0.34,-0.405 0.33,-0.407 0.319,-0.407C0.302,-0.407 0.286,-0.403 0.271,-0.397C0.256,-0.391 0.243,-0.382 0.232,-0.371C0.221,-0.359 0.212,-0.346 0.206,-0.331C0.199,-0.316 0.196,-0.3 0.196,-0.281L0.196,-0L0.072,-0Z" style="fill:rgb(194,81,38);fill-rule:nonzero;"/>
                        </g>
                        <g transform="matrix(44.2012,0,0,44.2012,2611.4,85.7089)">
                            <path d="M0.271,0.01C0.228,0.01 0.188,-0.002 0.153,-0.026C0.117,-0.05 0.089,-0.083 0.068,-0.124C0.047,-0.166 0.036,-0.212 0.036,-0.265C0.036,-0.318 0.047,-0.365 0.068,-0.406C0.09,-0.447 0.118,-0.48 0.155,-0.503C0.192,-0.526 0.233,-0.538 0.279,-0.538C0.306,-0.538 0.33,-0.534 0.352,-0.526C0.374,-0.519 0.394,-0.508 0.41,-0.494C0.427,-0.48 0.441,-0.464 0.452,-0.446C0.463,-0.428 0.47,-0.409 0.474,-0.388L0.447,-0.395L0.447,-0.527L0.571,-0.527L0.571,-0L0.446,-0L0.446,-0.126L0.475,-0.131C0.47,-0.113 0.462,-0.095 0.45,-0.078C0.437,-0.061 0.422,-0.046 0.404,-0.033C0.385,-0.02 0.365,-0.01 0.343,-0.002C0.32,0.006 0.296,0.01 0.271,0.01ZM0.305,-0.099C0.334,-0.099 0.359,-0.106 0.381,-0.12C0.403,-0.134 0.42,-0.154 0.432,-0.179C0.444,-0.204 0.451,-0.232 0.451,-0.265C0.451,-0.297 0.444,-0.325 0.432,-0.35C0.42,-0.375 0.403,-0.394 0.381,-0.408C0.359,-0.422 0.334,-0.429 0.305,-0.429C0.276,-0.429 0.251,-0.422 0.23,-0.408C0.208,-0.394 0.191,-0.375 0.179,-0.35C0.167,-0.325 0.161,-0.297 0.161,-0.265C0.161,-0.232 0.167,-0.204 0.179,-0.179C0.191,-0.154 0.208,-0.134 0.23,-0.12C0.251,-0.106 0.276,-0.099 0.305,-0.099Z" style="fill:rgb(194,81,38);fill-rule:nonzero;"/>
                        </g>
                        <g transform="matrix(44.2012,0,0,44.2012,2635.31,85.7089)">
                            <path d="M0.12,-0L0.12,-0.574C0.12,-0.606 0.127,-0.634 0.141,-0.659C0.155,-0.684 0.174,-0.704 0.199,-0.718C0.224,-0.733 0.252,-0.74 0.285,-0.74C0.307,-0.74 0.328,-0.736 0.348,-0.728C0.368,-0.721 0.384,-0.71 0.397,-0.697L0.359,-0.604C0.35,-0.611 0.341,-0.617 0.331,-0.621C0.322,-0.625 0.313,-0.627 0.304,-0.627C0.291,-0.627 0.28,-0.625 0.271,-0.621C0.262,-0.616 0.255,-0.61 0.251,-0.601C0.247,-0.592 0.244,-0.582 0.244,-0.57L0.244,-0L0.12,-0ZM0.038,-0.408L0.038,-0.516L0.363,-0.516L0.363,-0.408L0.038,-0.408Z" style="fill:rgb(194,81,38);fill-rule:nonzero;"/>
                        </g>
                        <g transform="matrix(44.2012,0,0,44.2012,2648.35,85.7089)">
                            <path d="M0.129,-0L0.129,-0.661L0.252,-0.661L0.252,-0L0.129,-0ZM0.025,-0.413L0.025,-0.527L0.368,-0.527L0.368,-0.413L0.025,-0.413Z" style="fill:rgb(194,81,38);fill-rule:nonzero;"/>
                        </g>
                        <g transform="matrix(44.2012,0,0,44.2012,2665.54,85.7089)">
                        </g>
                    </g>
                    <g transform="matrix(1,0,0,1,-1340,0)">
                        <path d="M4101.26,61.118L4101.26,78.882C4101.26,83.783 4097.28,87.763 4092.38,87.763L3965.14,87.763C3960.24,87.763 3956.26,83.783 3956.26,78.882L3956.26,61.118C3956.26,56.217 3960.24,52.237 3965.14,52.237L4092.38,52.237C4097.28,52.237 4101.26,56.217 4101.26,61.118Z" style="fill:rgb(194,81,38);"/>
                    </g>
                    <g transform="matrix(0.592105,0,0,0.592105,1185.58,28.5526)">
                        <g transform="matrix(44.2012,0,0,44.2012,2456.21,85.7089)">
                            <path d="M0.073,-0L0.073,-0.115L0.188,-0.115L0.188,-0.585L0.073,-0.585L0.073,-0.7L0.433,-0.7L0.433,-0.585L0.318,-0.585L0.318,-0.115L0.433,-0.115L0.433,-0L0.073,-0Z" style="fill-rule:nonzero;"/>
                        </g>
                        <g transform="matrix(44.2012,0,0,44.2012,2474.06,85.7089)">
                            <path d="M0.072,-0L0.072,-0.527L0.192,-0.527L0.194,-0.419L0.171,-0.407C0.178,-0.431 0.191,-0.452 0.21,-0.472C0.229,-0.492 0.252,-0.508 0.279,-0.52C0.306,-0.532 0.333,-0.538 0.361,-0.538C0.401,-0.538 0.435,-0.53 0.462,-0.514C0.489,-0.498 0.509,-0.474 0.523,-0.442C0.536,-0.41 0.543,-0.37 0.543,-0.322L0.543,-0L0.42,-0L0.42,-0.313C0.42,-0.34 0.416,-0.362 0.409,-0.38C0.401,-0.398 0.39,-0.411 0.375,-0.419C0.36,-0.427 0.341,-0.431 0.319,-0.43C0.301,-0.43 0.284,-0.427 0.269,-0.421C0.254,-0.415 0.241,-0.407 0.23,-0.397C0.219,-0.387 0.211,-0.375 0.204,-0.362C0.198,-0.348 0.195,-0.334 0.195,-0.318L0.195,-0L0.072,-0Z" style="fill-rule:nonzero;"/>
                        </g>
                        <g transform="matrix(44.2012,0,0,44.2012,2496.52,85.7089)">
                            <path d="M0.248,0.01C0.201,0.01 0.159,0.002 0.123,-0.014C0.086,-0.03 0.056,-0.052 0.032,-0.081L0.112,-0.15C0.132,-0.127 0.154,-0.111 0.179,-0.101C0.203,-0.091 0.23,-0.086 0.257,-0.086C0.268,-0.086 0.278,-0.087 0.287,-0.09C0.297,-0.092 0.305,-0.096 0.311,-0.102C0.318,-0.107 0.323,-0.113 0.327,-0.12C0.33,-0.127 0.332,-0.135 0.332,-0.144C0.332,-0.16 0.326,-0.173 0.314,-0.182C0.307,-0.186 0.297,-0.191 0.283,-0.197C0.268,-0.202 0.25,-0.207 0.227,-0.213C0.191,-0.223 0.161,-0.233 0.137,-0.246C0.113,-0.258 0.094,-0.271 0.081,-0.287C0.069,-0.3 0.061,-0.314 0.055,-0.33C0.05,-0.346 0.047,-0.363 0.047,-0.382C0.047,-0.405 0.052,-0.426 0.063,-0.445C0.073,-0.464 0.087,-0.481 0.105,-0.495C0.123,-0.509 0.144,-0.519 0.168,-0.527C0.192,-0.534 0.217,-0.538 0.243,-0.538C0.27,-0.538 0.295,-0.535 0.321,-0.528C0.346,-0.522 0.369,-0.512 0.391,-0.5C0.412,-0.487 0.431,-0.472 0.446,-0.455L0.378,-0.38C0.366,-0.392 0.352,-0.403 0.337,-0.412C0.322,-0.422 0.307,-0.429 0.291,-0.435C0.276,-0.44 0.261,-0.443 0.248,-0.443C0.236,-0.443 0.224,-0.441 0.214,-0.439C0.204,-0.437 0.196,-0.433 0.189,-0.429C0.182,-0.424 0.177,-0.418 0.174,-0.411C0.17,-0.404 0.168,-0.396 0.168,-0.387C0.169,-0.379 0.171,-0.372 0.175,-0.365C0.178,-0.358 0.183,-0.352 0.19,-0.347C0.197,-0.342 0.208,-0.337 0.223,-0.331C0.237,-0.325 0.256,-0.32 0.28,-0.314C0.313,-0.305 0.34,-0.295 0.362,-0.285C0.384,-0.274 0.401,-0.262 0.414,-0.248C0.427,-0.236 0.436,-0.222 0.441,-0.206C0.447,-0.19 0.449,-0.172 0.449,-0.153C0.449,-0.121 0.44,-0.093 0.423,-0.069C0.405,-0.044 0.381,-0.025 0.35,-0.011C0.32,0.003 0.286,0.01 0.248,0.01Z" style="fill-rule:nonzero;"/>
                        </g>
                        <g transform="matrix(44.2012,0,0,44.2012,2513.49,85.7089)">
                            <path d="M0.072,0.22L0.072,-0.527L0.193,-0.527L0.195,-0.407L0.174,-0.416C0.178,-0.437 0.189,-0.457 0.208,-0.475C0.226,-0.493 0.249,-0.508 0.276,-0.519C0.303,-0.531 0.332,-0.536 0.361,-0.536C0.408,-0.536 0.449,-0.525 0.486,-0.501C0.522,-0.478 0.55,-0.446 0.571,-0.405C0.592,-0.364 0.603,-0.317 0.603,-0.264C0.603,-0.212 0.592,-0.165 0.572,-0.124C0.551,-0.083 0.522,-0.05 0.486,-0.027C0.45,-0.003 0.409,0.009 0.363,0.009C0.332,0.009 0.303,0.003 0.275,-0.009C0.246,-0.021 0.222,-0.037 0.203,-0.056C0.183,-0.075 0.171,-0.096 0.166,-0.117L0.196,-0.131L0.196,0.22L0.072,0.22ZM0.338,-0.1C0.366,-0.1 0.391,-0.107 0.413,-0.121C0.435,-0.135 0.452,-0.155 0.465,-0.179C0.477,-0.204 0.483,-0.232 0.483,-0.264C0.483,-0.296 0.477,-0.324 0.465,-0.349C0.453,-0.373 0.436,-0.392 0.414,-0.406C0.392,-0.42 0.367,-0.427 0.338,-0.427C0.309,-0.427 0.283,-0.42 0.262,-0.407C0.24,-0.393 0.222,-0.374 0.21,-0.349C0.197,-0.324 0.191,-0.296 0.191,-0.264C0.191,-0.232 0.197,-0.204 0.21,-0.179C0.222,-0.155 0.24,-0.135 0.262,-0.121C0.283,-0.107 0.309,-0.1 0.338,-0.1Z" style="fill-rule:nonzero;"/>
                        </g>
                        <g transform="matrix(44.2012,0,0,44.2012,2537.36,85.7089)">
                            <path d="M0.319,0.01C0.264,0.01 0.215,-0.002 0.173,-0.025C0.13,-0.048 0.097,-0.08 0.074,-0.12C0.05,-0.16 0.038,-0.207 0.038,-0.259C0.038,-0.3 0.045,-0.338 0.058,-0.372C0.071,-0.406 0.09,-0.435 0.114,-0.46C0.137,-0.485 0.166,-0.505 0.199,-0.518C0.232,-0.532 0.268,-0.539 0.307,-0.539C0.342,-0.539 0.374,-0.532 0.404,-0.519C0.434,-0.506 0.46,-0.488 0.482,-0.465C0.504,-0.442 0.521,-0.414 0.533,-0.383C0.545,-0.351 0.55,-0.317 0.549,-0.279L0.548,-0.236L0.121,-0.236L0.098,-0.32L0.445,-0.32L0.429,-0.303L0.429,-0.325C0.427,-0.345 0.421,-0.363 0.409,-0.379C0.398,-0.395 0.383,-0.407 0.366,-0.416C0.348,-0.425 0.329,-0.43 0.307,-0.43C0.275,-0.43 0.247,-0.424 0.225,-0.411C0.203,-0.399 0.186,-0.38 0.174,-0.357C0.163,-0.333 0.157,-0.303 0.157,-0.268C0.157,-0.234 0.164,-0.204 0.178,-0.179C0.193,-0.154 0.213,-0.135 0.239,-0.121C0.266,-0.107 0.297,-0.1 0.332,-0.1C0.357,-0.1 0.38,-0.104 0.4,-0.112C0.421,-0.12 0.443,-0.134 0.467,-0.155L0.528,-0.07C0.51,-0.053 0.489,-0.039 0.466,-0.027C0.443,-0.015 0.419,-0.006 0.394,0C0.369,0.007 0.344,0.01 0.319,0.01Z" style="fill-rule:nonzero;"/>
                        </g>
                        <g transform="matrix(44.2012,0,0,44.2012,2558.8,85.7089)">
                            <path d="M0.298,0.01C0.249,0.01 0.204,-0.002 0.165,-0.026C0.126,-0.05 0.095,-0.083 0.072,-0.124C0.049,-0.166 0.038,-0.212 0.038,-0.264C0.038,-0.316 0.049,-0.363 0.072,-0.404C0.095,-0.445 0.126,-0.478 0.165,-0.502C0.204,-0.526 0.249,-0.538 0.298,-0.538C0.345,-0.538 0.388,-0.529 0.427,-0.511C0.466,-0.493 0.496,-0.468 0.517,-0.436L0.449,-0.354C0.439,-0.368 0.426,-0.38 0.411,-0.392C0.396,-0.403 0.379,-0.412 0.362,-0.419C0.344,-0.425 0.327,-0.429 0.31,-0.429C0.28,-0.429 0.254,-0.422 0.231,-0.407C0.208,-0.393 0.19,-0.374 0.177,-0.349C0.163,-0.324 0.157,-0.296 0.157,-0.264C0.157,-0.233 0.164,-0.205 0.177,-0.18C0.191,-0.156 0.21,-0.136 0.233,-0.121C0.256,-0.107 0.282,-0.099 0.311,-0.1C0.328,-0.099 0.345,-0.102 0.361,-0.108C0.378,-0.113 0.393,-0.121 0.408,-0.132C0.423,-0.143 0.436,-0.156 0.449,-0.172L0.517,-0.089C0.495,-0.06 0.464,-0.036 0.424,-0.018C0.384,0.001 0.342,0.01 0.298,0.01ZM0.204,0.245L0.197,0.184C0.212,0.184 0.228,0.182 0.244,0.177C0.261,0.172 0.275,0.166 0.286,0.159C0.298,0.151 0.303,0.143 0.303,0.135C0.303,0.127 0.298,0.12 0.288,0.114C0.278,0.109 0.267,0.106 0.254,0.103C0.241,0.1 0.23,0.099 0.22,0.099L0.205,0.088L0.276,-0.024L0.343,-0.024L0.299,0.045C0.333,0.051 0.359,0.062 0.375,0.078C0.392,0.095 0.4,0.115 0.4,0.139C0.4,0.157 0.394,0.173 0.382,0.187C0.37,0.2 0.355,0.212 0.335,0.22C0.316,0.229 0.295,0.236 0.272,0.24C0.249,0.244 0.226,0.245 0.204,0.245Z" style="fill-rule:nonzero;"/>
                        </g>
                        <g transform="matrix(44.2012,0,0,44.2012,2578.16,85.7089)">
                            <path d="M0.271,0.01C0.228,0.01 0.188,-0.002 0.153,-0.026C0.117,-0.05 0.089,-0.083 0.068,-0.124C0.047,-0.166 0.036,-0.212 0.036,-0.265C0.036,-0.318 0.047,-0.365 0.068,-0.406C0.09,-0.447 0.118,-0.48 0.155,-0.503C0.192,-0.526 0.233,-0.538 0.279,-0.538C0.306,-0.538 0.33,-0.534 0.352,-0.526C0.374,-0.519 0.394,-0.508 0.41,-0.494C0.427,-0.48 0.441,-0.464 0.452,-0.446C0.463,-0.428 0.47,-0.409 0.474,-0.388L0.447,-0.395L0.447,-0.527L0.571,-0.527L0.571,-0L0.446,-0L0.446,-0.126L0.475,-0.131C0.47,-0.113 0.462,-0.095 0.45,-0.078C0.437,-0.061 0.422,-0.046 0.404,-0.033C0.385,-0.02 0.365,-0.01 0.343,-0.002C0.32,0.006 0.296,0.01 0.271,0.01ZM0.305,-0.099C0.334,-0.099 0.359,-0.106 0.381,-0.12C0.403,-0.134 0.42,-0.154 0.432,-0.179C0.444,-0.204 0.451,-0.232 0.451,-0.265C0.451,-0.297 0.444,-0.325 0.432,-0.35C0.42,-0.375 0.403,-0.394 0.381,-0.408C0.359,-0.422 0.334,-0.429 0.305,-0.429C0.276,-0.429 0.251,-0.422 0.23,-0.408C0.208,-0.394 0.191,-0.375 0.179,-0.35C0.167,-0.325 0.161,-0.297 0.161,-0.265C0.161,-0.232 0.167,-0.204 0.179,-0.179C0.191,-0.154 0.208,-0.134 0.23,-0.12C0.251,-0.106 0.276,-0.099 0.305,-0.099ZM0.379,-0.615C0.366,-0.615 0.355,-0.617 0.345,-0.622C0.335,-0.627 0.324,-0.634 0.312,-0.643C0.3,-0.653 0.29,-0.661 0.284,-0.665C0.277,-0.669 0.271,-0.671 0.266,-0.671C0.257,-0.671 0.249,-0.666 0.242,-0.657C0.235,-0.648 0.231,-0.635 0.228,-0.616L0.153,-0.627C0.154,-0.662 0.164,-0.691 0.184,-0.716C0.204,-0.741 0.231,-0.754 0.265,-0.754C0.277,-0.754 0.289,-0.751 0.298,-0.746C0.308,-0.742 0.319,-0.735 0.331,-0.726C0.343,-0.717 0.352,-0.71 0.358,-0.705C0.365,-0.7 0.371,-0.698 0.377,-0.698C0.387,-0.698 0.395,-0.702 0.401,-0.712C0.408,-0.721 0.412,-0.734 0.414,-0.752L0.49,-0.741C0.489,-0.719 0.484,-0.698 0.475,-0.678C0.466,-0.659 0.453,-0.643 0.437,-0.632C0.42,-0.62 0.401,-0.615 0.379,-0.615Z" style="fill-rule:nonzero;"/>
                        </g>
                        <g transform="matrix(44.2012,0,0,44.2012,2602.07,85.7089)">
                            <path d="M0.313,0.01C0.26,0.01 0.213,-0.002 0.172,-0.026C0.13,-0.049 0.098,-0.082 0.074,-0.123C0.05,-0.164 0.038,-0.211 0.038,-0.264C0.038,-0.317 0.05,-0.364 0.074,-0.405C0.098,-0.446 0.13,-0.479 0.172,-0.502C0.213,-0.526 0.26,-0.538 0.313,-0.538C0.365,-0.538 0.412,-0.526 0.453,-0.502C0.494,-0.479 0.527,-0.446 0.55,-0.405C0.574,-0.364 0.586,-0.317 0.586,-0.264C0.586,-0.211 0.574,-0.164 0.55,-0.123C0.527,-0.082 0.494,-0.049 0.453,-0.026C0.412,-0.002 0.365,0.01 0.313,0.01ZM0.313,-0.099C0.341,-0.099 0.367,-0.107 0.389,-0.121C0.412,-0.135 0.43,-0.155 0.442,-0.18C0.455,-0.205 0.461,-0.233 0.461,-0.264C0.461,-0.296 0.455,-0.324 0.442,-0.349C0.43,-0.374 0.412,-0.393 0.389,-0.408C0.367,-0.422 0.341,-0.429 0.313,-0.429C0.284,-0.429 0.258,-0.422 0.235,-0.407C0.212,-0.393 0.195,-0.373 0.182,-0.348C0.169,-0.324 0.163,-0.295 0.163,-0.264C0.163,-0.233 0.169,-0.205 0.182,-0.18C0.195,-0.155 0.212,-0.135 0.235,-0.121C0.258,-0.107 0.284,-0.099 0.313,-0.099Z" style="fill-rule:nonzero;"/>
                        </g>
                        <g transform="matrix(44.2012,0,0,44.2012,2629.65,85.7089)">
                        </g>
                    </g>
                </g>
                <path d="M2776.26,55L2776.26,85C2776.26,93.279 2769.54,100 2761.26,100L2431.26,100C2422.98,100 2416.26,93.279 2416.26,85L2416.26,55C2416.26,46.721 2422.98,40 2431.26,40L2761.26,40C2769.54,40 2776.26,46.721 2776.26,55Z" style="fill:none;stroke:rgb(194,81,38);stroke-width:2.58px;"/>
            </g>
        </g>
    </g>
</svg>
