<?xml version="1.0" encoding="UTF-8" standalone="no"?>
<!DOCTYPE svg PUBLIC "-//W3C//DTD SVG 1.1//EN" "http://www.w3.org/Graphics/SVG/1.1/DTD/svg11.dtd">
<svg width="100%" height="100%" viewBox="0 0 363 63" version="1.1" xmlns="http://www.w3.org/2000/svg" xmlns:xlink="http://www.w3.org/1999/xlink" xml:space="preserve" xmlns:serif="http://www.serif.com/" style="fill-rule:evenodd;clip-rule:evenodd;stroke-linecap:round;stroke-linejoin:round;stroke-miterlimit:1.5;">
    <g transform="matrix(1,0,0,1,-3124.25,-38.7105)">
        <g transform="matrix(1,0,0,1,717.583,-2.27374e-13)">
            <g transform="matrix(1,0,0,1,-8.30571,2.27374e-13)">
                <path d="M2776.26,55L2776.26,85C2776.26,93.279 2769.54,100 2761.26,100L2431.26,100C2422.98,100 2416.26,93.279 2416.26,85L2416.26,55C2416.26,46.721 2422.98,40 2431.26,40L2761.26,40C2769.54,40 2776.26,46.721 2776.26,55Z" style="fill:none;"/>
                <clipPath id="_clip1">
                    <path d="M2776.26,55L2776.26,85C2776.26,93.279 2769.54,100 2761.26,100L2431.26,100C2422.98,100 2416.26,93.279 2416.26,85L2416.26,55C2416.26,46.721 2422.98,40 2431.26,40L2761.26,40C2769.54,40 2776.26,46.721 2776.26,55Z"/>
                </clipPath>
                <g clip-path="url(#_clip1)">
                    <g transform="matrix(0.75,0,0,0.75,619.065,17.5)">
                        <g transform="matrix(44.2012,0,0,44.2012,2422.11,85.7089)">
                            <path d="M0.094,-0L0.094,-0.7L0.375,-0.7C0.426,-0.7 0.472,-0.692 0.513,-0.675C0.554,-0.658 0.589,-0.634 0.619,-0.603C0.648,-0.571 0.671,-0.534 0.686,-0.492C0.702,-0.449 0.71,-0.402 0.71,-0.35C0.71,-0.298 0.702,-0.251 0.686,-0.208C0.671,-0.165 0.648,-0.128 0.619,-0.097C0.59,-0.066 0.554,-0.042 0.513,-0.025C0.472,-0.008 0.426,-0 0.375,-0L0.094,-0ZM0.224,-0.101L0.214,-0.12L0.37,-0.12C0.403,-0.12 0.432,-0.126 0.458,-0.136C0.483,-0.147 0.505,-0.162 0.523,-0.182C0.541,-0.202 0.555,-0.226 0.564,-0.254C0.573,-0.283 0.578,-0.315 0.578,-0.35C0.578,-0.385 0.573,-0.417 0.564,-0.445C0.555,-0.473 0.541,-0.498 0.523,-0.518C0.505,-0.538 0.483,-0.553 0.457,-0.564C0.432,-0.574 0.403,-0.58 0.37,-0.58L0.211,-0.58L0.224,-0.597L0.224,-0.101Z" style="fill:rgb(194,81,38);fill-rule:nonzero;"/>
                        </g>
                        <g transform="matrix(44.2012,0,0,44.2012,2451.11,85.7089)">
                            <path d="M0.072,-0L0.072,-0.527L0.193,-0.527L0.195,-0.359L0.178,-0.397C0.186,-0.423 0.198,-0.447 0.216,-0.469C0.234,-0.49 0.255,-0.507 0.279,-0.519C0.302,-0.532 0.327,-0.538 0.353,-0.538C0.364,-0.538 0.375,-0.537 0.386,-0.535C0.396,-0.533 0.405,-0.531 0.411,-0.528L0.378,-0.393C0.371,-0.397 0.362,-0.4 0.351,-0.403C0.34,-0.405 0.33,-0.407 0.319,-0.407C0.302,-0.407 0.286,-0.403 0.271,-0.397C0.256,-0.391 0.243,-0.382 0.232,-0.371C0.221,-0.359 0.212,-0.346 0.206,-0.331C0.199,-0.316 0.196,-0.3 0.196,-0.281L0.196,-0L0.072,-0Z" style="fill:rgb(194,81,38);fill-rule:nonzero;"/>
                        </g>
                        <g transform="matrix(44.2012,0,0,44.2012,2464.28,85.7089)">
                            <path d="M0.271,0.01C0.228,0.01 0.188,-0.002 0.153,-0.026C0.117,-0.05 0.089,-0.083 0.068,-0.124C0.047,-0.166 0.036,-0.212 0.036,-0.265C0.036,-0.318 0.047,-0.365 0.068,-0.406C0.09,-0.447 0.118,-0.48 0.155,-0.503C0.192,-0.526 0.233,-0.538 0.279,-0.538C0.306,-0.538 0.33,-0.534 0.352,-0.526C0.374,-0.519 0.394,-0.508 0.41,-0.494C0.427,-0.48 0.441,-0.464 0.452,-0.446C0.463,-0.428 0.47,-0.409 0.474,-0.388L0.447,-0.395L0.447,-0.527L0.571,-0.527L0.571,-0L0.446,-0L0.446,-0.126L0.475,-0.131C0.47,-0.113 0.462,-0.095 0.45,-0.078C0.437,-0.061 0.422,-0.046 0.404,-0.033C0.385,-0.02 0.365,-0.01 0.343,-0.002C0.32,0.006 0.296,0.01 0.271,0.01ZM0.305,-0.099C0.334,-0.099 0.359,-0.106 0.381,-0.12C0.403,-0.134 0.42,-0.154 0.432,-0.179C0.444,-0.204 0.451,-0.232 0.451,-0.265C0.451,-0.297 0.444,-0.325 0.432,-0.35C0.42,-0.375 0.403,-0.394 0.381,-0.408C0.359,-0.422 0.334,-0.429 0.305,-0.429C0.276,-0.429 0.251,-0.422 0.23,-0.408C0.208,-0.394 0.191,-0.375 0.179,-0.35C0.167,-0.325 0.161,-0.297 0.161,-0.265C0.161,-0.232 0.167,-0.204 0.179,-0.179C0.191,-0.154 0.208,-0.134 0.23,-0.12C0.251,-0.106 0.276,-0.099 0.305,-0.099Z" style="fill:rgb(194,81,38);fill-rule:nonzero;"/>
                        </g>
                        <g transform="matrix(44.2012,0,0,44.2012,2488.19,85.7089)">
                            <path d="M0.12,-0L0.12,-0.574C0.12,-0.606 0.127,-0.634 0.141,-0.659C0.155,-0.684 0.174,-0.704 0.199,-0.718C0.224,-0.733 0.252,-0.74 0.285,-0.74C0.307,-0.74 0.328,-0.736 0.348,-0.728C0.368,-0.721 0.384,-0.71 0.397,-0.697L0.359,-0.604C0.35,-0.611 0.341,-0.617 0.331,-0.621C0.322,-0.625 0.313,-0.627 0.304,-0.627C0.291,-0.627 0.28,-0.625 0.271,-0.621C0.262,-0.616 0.255,-0.61 0.251,-0.601C0.247,-0.592 0.244,-0.582 0.244,-0.57L0.244,-0L0.12,-0ZM0.038,-0.408L0.038,-0.516L0.363,-0.516L0.363,-0.408L0.038,-0.408Z" style="fill:rgb(194,81,38);fill-rule:nonzero;"/>
                        </g>
                        <g transform="matrix(44.2012,0,0,44.2012,2501.23,85.7089)">
                            <path d="M0.129,-0L0.129,-0.661L0.252,-0.661L0.252,-0L0.129,-0ZM0.025,-0.413L0.025,-0.527L0.368,-0.527L0.368,-0.413L0.025,-0.413Z" style="fill:rgb(194,81,38);fill-rule:nonzero;"/>
                        </g>
                        <g transform="matrix(44.2012,0,0,44.2012,2513.96,85.7089)">
                        </g>
                        <g transform="matrix(44.2012,0,0,44.2012,2522.49,85.7089)">
                            <path d="M0.081,-0L0.048,-0.082L0.258,-0.317C0.27,-0.329 0.282,-0.343 0.295,-0.359C0.307,-0.374 0.319,-0.391 0.331,-0.408C0.343,-0.424 0.352,-0.441 0.36,-0.457C0.367,-0.473 0.371,-0.489 0.371,-0.503C0.371,-0.521 0.367,-0.537 0.359,-0.55C0.352,-0.563 0.341,-0.574 0.327,-0.581C0.313,-0.588 0.296,-0.592 0.275,-0.592C0.257,-0.592 0.24,-0.587 0.223,-0.577C0.206,-0.566 0.19,-0.552 0.176,-0.533C0.161,-0.514 0.15,-0.491 0.14,-0.465L0.042,-0.523C0.054,-0.562 0.072,-0.595 0.096,-0.624C0.121,-0.652 0.149,-0.674 0.182,-0.689C0.215,-0.705 0.251,-0.712 0.29,-0.712C0.33,-0.712 0.365,-0.704 0.397,-0.687C0.429,-0.67 0.454,-0.647 0.472,-0.618C0.49,-0.588 0.499,-0.554 0.499,-0.515C0.499,-0.5 0.497,-0.485 0.494,-0.469C0.491,-0.454 0.486,-0.437 0.478,-0.421C0.471,-0.404 0.462,-0.386 0.451,-0.368C0.44,-0.35 0.426,-0.33 0.411,-0.31C0.395,-0.29 0.377,-0.269 0.357,-0.247L0.198,-0.074L0.178,-0.12L0.524,-0.12L0.524,-0L0.081,-0Z" style="fill:rgb(194,81,38);fill-rule:nonzero;"/>
                        </g>
                        <g transform="matrix(44.2012,0,0,44.2012,2542.25,85.7089)">
                            <path d="M0.315,0.01C0.258,0.01 0.21,-0.005 0.169,-0.034C0.129,-0.063 0.098,-0.104 0.076,-0.158C0.055,-0.211 0.044,-0.275 0.044,-0.35C0.044,-0.425 0.055,-0.489 0.076,-0.542C0.098,-0.596 0.129,-0.637 0.169,-0.666C0.21,-0.695 0.258,-0.71 0.315,-0.71C0.372,-0.71 0.42,-0.695 0.461,-0.666C0.502,-0.637 0.533,-0.596 0.555,-0.542C0.576,-0.489 0.587,-0.425 0.587,-0.35C0.587,-0.275 0.576,-0.211 0.555,-0.158C0.533,-0.104 0.502,-0.063 0.461,-0.034C0.42,-0.005 0.372,0.01 0.315,0.01ZM0.315,-0.104C0.362,-0.104 0.398,-0.126 0.424,-0.168C0.449,-0.211 0.462,-0.272 0.462,-0.35C0.462,-0.429 0.449,-0.49 0.424,-0.533C0.398,-0.576 0.362,-0.598 0.315,-0.598C0.268,-0.598 0.232,-0.576 0.206,-0.533C0.181,-0.49 0.168,-0.429 0.168,-0.35C0.168,-0.272 0.181,-0.211 0.206,-0.168C0.232,-0.126 0.268,-0.104 0.315,-0.104Z" style="fill:rgb(194,81,38);fill-rule:nonzero;"/>
                        </g>
                        <g transform="matrix(44.2012,0,0,44.2012,2565.68,85.7089)">
                            <path d="M0.081,-0L0.048,-0.082L0.258,-0.317C0.27,-0.329 0.282,-0.343 0.295,-0.359C0.307,-0.374 0.319,-0.391 0.331,-0.408C0.343,-0.424 0.352,-0.441 0.36,-0.457C0.367,-0.473 0.371,-0.489 0.371,-0.503C0.371,-0.521 0.367,-0.537 0.359,-0.55C0.352,-0.563 0.341,-0.574 0.327,-0.581C0.313,-0.588 0.296,-0.592 0.275,-0.592C0.257,-0.592 0.24,-0.587 0.223,-0.577C0.206,-0.566 0.19,-0.552 0.176,-0.533C0.161,-0.514 0.15,-0.491 0.14,-0.465L0.042,-0.523C0.054,-0.562 0.072,-0.595 0.096,-0.624C0.121,-0.652 0.149,-0.674 0.182,-0.689C0.215,-0.705 0.251,-0.712 0.29,-0.712C0.33,-0.712 0.365,-0.704 0.397,-0.687C0.429,-0.67 0.454,-0.647 0.472,-0.618C0.49,-0.588 0.499,-0.554 0.499,-0.515C0.499,-0.5 0.497,-0.485 0.494,-0.469C0.491,-0.454 0.486,-0.437 0.478,-0.421C0.471,-0.404 0.462,-0.386 0.451,-0.368C0.44,-0.35 0.426,-0.33 0.411,-0.31C0.395,-0.29 0.377,-0.269 0.357,-0.247L0.198,-0.074L0.178,-0.12L0.524,-0.12L0.524,-0L0.081,-0Z" style="fill:rgb(194,81,38);fill-rule:nonzero;"/>
                        </g>
                        <g transform="matrix(44.2012,0,0,44.2012,2585.44,85.7089)">
                            <path d="M0.287,-0C0.252,-0 0.219,-0.006 0.189,-0.019C0.158,-0.031 0.132,-0.049 0.11,-0.071C0.087,-0.094 0.07,-0.12 0.057,-0.15C0.044,-0.18 0.038,-0.213 0.038,-0.249C0.038,-0.269 0.041,-0.291 0.046,-0.313C0.051,-0.336 0.058,-0.36 0.068,-0.386C0.078,-0.411 0.091,-0.438 0.105,-0.466C0.119,-0.494 0.136,-0.523 0.154,-0.554L0.247,-0.712L0.371,-0.712L0.375,-0.702L0.256,-0.506C0.237,-0.474 0.22,-0.444 0.205,-0.416C0.191,-0.387 0.178,-0.36 0.168,-0.334C0.157,-0.309 0.149,-0.284 0.142,-0.26L0.115,-0.351C0.125,-0.373 0.138,-0.392 0.152,-0.409C0.167,-0.426 0.183,-0.441 0.201,-0.453C0.219,-0.465 0.238,-0.474 0.258,-0.48C0.278,-0.486 0.297,-0.489 0.318,-0.489C0.357,-0.489 0.392,-0.478 0.425,-0.458C0.457,-0.436 0.484,-0.409 0.503,-0.374C0.523,-0.339 0.533,-0.301 0.533,-0.26C0.533,-0.21 0.522,-0.166 0.501,-0.127C0.48,-0.088 0.451,-0.057 0.414,-0.034C0.377,-0.011 0.335,-0 0.287,-0ZM0.288,-0.114C0.312,-0.114 0.333,-0.12 0.352,-0.131C0.371,-0.142 0.386,-0.158 0.397,-0.179C0.408,-0.199 0.413,-0.222 0.413,-0.249C0.413,-0.271 0.408,-0.292 0.397,-0.312C0.385,-0.332 0.37,-0.348 0.352,-0.36C0.333,-0.373 0.312,-0.379 0.289,-0.379C0.264,-0.379 0.241,-0.373 0.222,-0.361C0.202,-0.35 0.187,-0.334 0.176,-0.315C0.164,-0.295 0.159,-0.273 0.159,-0.249C0.159,-0.224 0.164,-0.201 0.176,-0.18C0.187,-0.16 0.202,-0.144 0.221,-0.132C0.24,-0.12 0.262,-0.114 0.288,-0.114Z" style="fill:rgb(194,81,38);fill-rule:nonzero;"/>
                        </g>
                        <g transform="matrix(44.2012,0,0,44.2012,2610.41,85.7089)">
                        </g>
                    </g>
                    <path d="M2766.26,60.625L2766.26,81.875C2766.26,87.739 2761.5,92.5 2755.64,92.5L2626.89,92.5C2621.02,92.5 2616.26,87.739 2616.26,81.875L2616.26,60.625C2616.26,54.761 2621.02,50 2626.89,50L2755.64,50C2761.5,50 2766.26,54.761 2766.26,60.625Z" style="fill:none;"/>
                    <clipPath id="_clip2">
                        <path d="M2766.26,60.625L2766.26,81.875C2766.26,87.739 2761.5,92.5 2755.64,92.5L2626.89,92.5C2621.02,92.5 2616.26,87.739 2616.26,81.875L2616.26,60.625C2616.26,54.761 2621.02,50 2626.89,50L2755.64,50C2761.5,50 2766.26,54.761 2766.26,60.625Z"/>
                    </clipPath>
                    <g clip-path="url(#_clip2)">
                        <path d="M2716.26,66.375L2716.26,76.125C2716.26,78.816 2714.08,81 2711.39,81L2671.14,81C2668.45,81 2666.26,78.816 2666.26,76.125L2666.26,66.375C2666.26,63.684 2668.45,61.5 2671.14,61.5L2711.39,61.5C2714.08,61.5 2716.26,63.684 2716.26,66.375Z" style="fill:rgb(194,81,38);"/>
                        <g transform="matrix(0.325,0,0,0.325,1830.98,48.5)">
                            <g transform="matrix(44.2012,0,0,44.2012,2449.58,85.7089)">
                                <path d="M0.093,-0L0.069,-0.058L0.305,-0.323C0.316,-0.335 0.328,-0.35 0.34,-0.366C0.352,-0.382 0.364,-0.398 0.375,-0.416C0.386,-0.434 0.395,-0.451 0.402,-0.469C0.409,-0.487 0.412,-0.503 0.412,-0.52C0.412,-0.544 0.407,-0.565 0.396,-0.582C0.386,-0.6 0.37,-0.613 0.351,-0.622C0.331,-0.631 0.308,-0.636 0.282,-0.636C0.259,-0.636 0.237,-0.631 0.215,-0.62C0.193,-0.61 0.173,-0.593 0.155,-0.571C0.137,-0.549 0.123,-0.521 0.113,-0.487L0.051,-0.524C0.063,-0.565 0.081,-0.599 0.104,-0.627C0.127,-0.654 0.155,-0.675 0.187,-0.689C0.219,-0.703 0.253,-0.71 0.29,-0.71C0.329,-0.71 0.363,-0.702 0.394,-0.686C0.425,-0.67 0.449,-0.648 0.467,-0.62C0.485,-0.592 0.494,-0.56 0.494,-0.523C0.494,-0.507 0.492,-0.491 0.488,-0.475C0.485,-0.459 0.479,-0.443 0.472,-0.427C0.465,-0.411 0.456,-0.394 0.446,-0.378C0.435,-0.361 0.423,-0.344 0.41,-0.327C0.396,-0.31 0.381,-0.292 0.364,-0.273L0.163,-0.049L0.151,-0.075L0.516,-0.075L0.516,-0L0.093,-0Z" style="fill:rgb(194,81,38);fill-rule:nonzero;"/>
                            </g>
                            <g transform="matrix(44.2012,0,0,44.2012,2469.34,85.7089)">
                                <path d="M0.306,0.01C0.251,0.01 0.205,-0.004 0.167,-0.033C0.128,-0.062 0.099,-0.103 0.079,-0.156C0.058,-0.21 0.048,-0.275 0.048,-0.35C0.048,-0.425 0.058,-0.49 0.079,-0.544C0.099,-0.597 0.128,-0.638 0.167,-0.667C0.205,-0.696 0.251,-0.71 0.306,-0.71C0.36,-0.71 0.406,-0.696 0.445,-0.667C0.483,-0.638 0.513,-0.597 0.533,-0.544C0.553,-0.49 0.564,-0.425 0.564,-0.35C0.564,-0.275 0.553,-0.21 0.533,-0.156C0.513,-0.103 0.483,-0.062 0.445,-0.033C0.406,-0.004 0.36,0.01 0.306,0.01ZM0.306,-0.063C0.363,-0.063 0.408,-0.088 0.439,-0.138C0.47,-0.188 0.485,-0.258 0.485,-0.35C0.485,-0.442 0.47,-0.512 0.439,-0.562C0.408,-0.612 0.363,-0.637 0.306,-0.637C0.248,-0.637 0.204,-0.612 0.172,-0.562C0.141,-0.512 0.126,-0.442 0.126,-0.35C0.126,-0.258 0.141,-0.188 0.172,-0.138C0.204,-0.088 0.248,-0.063 0.306,-0.063Z" style="fill:rgb(194,81,38);fill-rule:nonzero;"/>
                            </g>
                            <g transform="matrix(44.2012,0,0,44.2012,2491.93,85.7089)">
                                <path d="M0.093,-0L0.069,-0.058L0.305,-0.323C0.316,-0.335 0.328,-0.35 0.34,-0.366C0.352,-0.382 0.364,-0.398 0.375,-0.416C0.386,-0.434 0.395,-0.451 0.402,-0.469C0.409,-0.487 0.412,-0.503 0.412,-0.52C0.412,-0.544 0.407,-0.565 0.396,-0.582C0.386,-0.6 0.37,-0.613 0.351,-0.622C0.331,-0.631 0.308,-0.636 0.282,-0.636C0.259,-0.636 0.237,-0.631 0.215,-0.62C0.193,-0.61 0.173,-0.593 0.155,-0.571C0.137,-0.549 0.123,-0.521 0.113,-0.487L0.051,-0.524C0.063,-0.565 0.081,-0.599 0.104,-0.627C0.127,-0.654 0.155,-0.675 0.187,-0.689C0.219,-0.703 0.253,-0.71 0.29,-0.71C0.329,-0.71 0.363,-0.702 0.394,-0.686C0.425,-0.67 0.449,-0.648 0.467,-0.62C0.485,-0.592 0.494,-0.56 0.494,-0.523C0.494,-0.507 0.492,-0.491 0.488,-0.475C0.485,-0.459 0.479,-0.443 0.472,-0.427C0.465,-0.411 0.456,-0.394 0.446,-0.378C0.435,-0.361 0.423,-0.344 0.41,-0.327C0.396,-0.31 0.381,-0.292 0.364,-0.273L0.163,-0.049L0.151,-0.075L0.516,-0.075L0.516,-0L0.093,-0Z" style="fill:rgb(194,81,38);fill-rule:nonzero;"/>
                            </g>
                            <g transform="matrix(44.2012,0,0,44.2012,2511.68,85.7089)">
                                <path d="M0.257,0.007C0.211,0.007 0.169,-0.004 0.132,-0.025C0.095,-0.046 0.064,-0.076 0.039,-0.115L0.086,-0.166C0.114,-0.129 0.143,-0.103 0.171,-0.088C0.199,-0.074 0.228,-0.067 0.258,-0.067C0.29,-0.067 0.319,-0.074 0.345,-0.089C0.372,-0.104 0.392,-0.125 0.408,-0.15C0.423,-0.175 0.431,-0.203 0.431,-0.234C0.431,-0.264 0.424,-0.292 0.41,-0.316C0.396,-0.34 0.377,-0.359 0.353,-0.374C0.329,-0.388 0.301,-0.395 0.27,-0.395C0.254,-0.395 0.237,-0.393 0.22,-0.389C0.204,-0.386 0.187,-0.38 0.169,-0.372C0.151,-0.365 0.132,-0.355 0.112,-0.344L0.068,-0.403L0.109,-0.7L0.487,-0.7L0.487,-0.627L0.15,-0.627L0.175,-0.645L0.138,-0.4L0.115,-0.416C0.126,-0.425 0.14,-0.433 0.158,-0.441C0.176,-0.449 0.196,-0.455 0.218,-0.46C0.239,-0.465 0.261,-0.468 0.281,-0.468C0.324,-0.468 0.363,-0.458 0.397,-0.439C0.431,-0.419 0.458,-0.392 0.478,-0.357C0.498,-0.323 0.508,-0.283 0.508,-0.239C0.508,-0.192 0.497,-0.151 0.475,-0.114C0.453,-0.077 0.423,-0.047 0.385,-0.026C0.347,-0.004 0.304,0.007 0.257,0.007Z" style="fill:rgb(194,81,38);fill-rule:nonzero;"/>
                            </g>
                            <g transform="matrix(44.2012,0,0,44.2012,2536.79,85.7089)">
                            </g>
                        </g>
                        <g transform="matrix(0.325,0,0,0.325,1880.98,48.5)">
                            <g transform="matrix(44.2012,0,0,44.2012,2449.45,85.7089)">
                                <path d="M0.093,-0L0.069,-0.058L0.305,-0.323C0.316,-0.335 0.328,-0.35 0.34,-0.366C0.352,-0.382 0.364,-0.398 0.375,-0.416C0.386,-0.434 0.395,-0.451 0.402,-0.469C0.409,-0.487 0.412,-0.503 0.412,-0.52C0.412,-0.544 0.407,-0.565 0.396,-0.582C0.386,-0.6 0.37,-0.613 0.351,-0.622C0.331,-0.631 0.308,-0.636 0.282,-0.636C0.259,-0.636 0.237,-0.631 0.215,-0.62C0.193,-0.61 0.173,-0.593 0.155,-0.571C0.137,-0.549 0.123,-0.521 0.113,-0.487L0.051,-0.524C0.063,-0.565 0.081,-0.599 0.104,-0.627C0.127,-0.654 0.155,-0.675 0.187,-0.689C0.219,-0.703 0.253,-0.71 0.29,-0.71C0.329,-0.71 0.363,-0.702 0.394,-0.686C0.425,-0.67 0.449,-0.648 0.467,-0.62C0.485,-0.592 0.494,-0.56 0.494,-0.523C0.494,-0.507 0.492,-0.491 0.488,-0.475C0.485,-0.459 0.479,-0.443 0.472,-0.427C0.465,-0.411 0.456,-0.394 0.446,-0.378C0.435,-0.361 0.423,-0.344 0.41,-0.327C0.396,-0.31 0.381,-0.292 0.364,-0.273L0.163,-0.049L0.151,-0.075L0.516,-0.075L0.516,-0L0.093,-0Z" style="fill-rule:nonzero;"/>
                            </g>
                            <g transform="matrix(44.2012,0,0,44.2012,2469.21,85.7089)">
                                <path d="M0.306,0.01C0.251,0.01 0.205,-0.004 0.167,-0.033C0.128,-0.062 0.099,-0.103 0.079,-0.156C0.058,-0.21 0.048,-0.275 0.048,-0.35C0.048,-0.425 0.058,-0.49 0.079,-0.544C0.099,-0.597 0.128,-0.638 0.167,-0.667C0.205,-0.696 0.251,-0.71 0.306,-0.71C0.36,-0.71 0.406,-0.696 0.445,-0.667C0.483,-0.638 0.513,-0.597 0.533,-0.544C0.553,-0.49 0.564,-0.425 0.564,-0.35C0.564,-0.275 0.553,-0.21 0.533,-0.156C0.513,-0.103 0.483,-0.062 0.445,-0.033C0.406,-0.004 0.36,0.01 0.306,0.01ZM0.306,-0.063C0.363,-0.063 0.408,-0.088 0.439,-0.138C0.47,-0.188 0.485,-0.258 0.485,-0.35C0.485,-0.442 0.47,-0.512 0.439,-0.562C0.408,-0.612 0.363,-0.637 0.306,-0.637C0.248,-0.637 0.204,-0.612 0.172,-0.562C0.141,-0.512 0.126,-0.442 0.126,-0.35C0.126,-0.258 0.141,-0.188 0.172,-0.138C0.204,-0.088 0.248,-0.063 0.306,-0.063Z" style="fill-rule:nonzero;"/>
                            </g>
                            <g transform="matrix(44.2012,0,0,44.2012,2491.79,85.7089)">
                                <path d="M0.093,-0L0.069,-0.058L0.305,-0.323C0.316,-0.335 0.328,-0.35 0.34,-0.366C0.352,-0.382 0.364,-0.398 0.375,-0.416C0.386,-0.434 0.395,-0.451 0.402,-0.469C0.409,-0.487 0.412,-0.503 0.412,-0.52C0.412,-0.544 0.407,-0.565 0.396,-0.582C0.386,-0.6 0.37,-0.613 0.351,-0.622C0.331,-0.631 0.308,-0.636 0.282,-0.636C0.259,-0.636 0.237,-0.631 0.215,-0.62C0.193,-0.61 0.173,-0.593 0.155,-0.571C0.137,-0.549 0.123,-0.521 0.113,-0.487L0.051,-0.524C0.063,-0.565 0.081,-0.599 0.104,-0.627C0.127,-0.654 0.155,-0.675 0.187,-0.689C0.219,-0.703 0.253,-0.71 0.29,-0.71C0.329,-0.71 0.363,-0.702 0.394,-0.686C0.425,-0.67 0.449,-0.648 0.467,-0.62C0.485,-0.592 0.494,-0.56 0.494,-0.523C0.494,-0.507 0.492,-0.491 0.488,-0.475C0.485,-0.459 0.479,-0.443 0.472,-0.427C0.465,-0.411 0.456,-0.394 0.446,-0.378C0.435,-0.361 0.423,-0.344 0.41,-0.327C0.396,-0.31 0.381,-0.292 0.364,-0.273L0.163,-0.049L0.151,-0.075L0.516,-0.075L0.516,-0L0.093,-0Z" style="fill-rule:nonzero;"/>
                            </g>
                            <g transform="matrix(44.2012,0,0,44.2012,2511.55,85.7089)">
                                <path d="M0.292,0.005C0.257,0.005 0.225,-0.001 0.196,-0.013C0.166,-0.025 0.14,-0.042 0.119,-0.065C0.097,-0.087 0.08,-0.113 0.068,-0.143C0.056,-0.174 0.05,-0.207 0.05,-0.243C0.05,-0.26 0.053,-0.279 0.057,-0.3C0.062,-0.321 0.068,-0.344 0.078,-0.369C0.087,-0.394 0.098,-0.42 0.112,-0.448C0.125,-0.476 0.14,-0.504 0.158,-0.533L0.26,-0.706L0.336,-0.706L0.34,-0.696L0.227,-0.506C0.211,-0.479 0.197,-0.453 0.184,-0.427C0.17,-0.401 0.158,-0.375 0.147,-0.348C0.135,-0.322 0.125,-0.295 0.114,-0.268L0.1,-0.34C0.112,-0.361 0.126,-0.38 0.142,-0.396C0.157,-0.412 0.173,-0.426 0.19,-0.438C0.208,-0.449 0.226,-0.458 0.246,-0.464C0.265,-0.47 0.285,-0.472 0.306,-0.472C0.346,-0.472 0.383,-0.462 0.416,-0.441C0.45,-0.42 0.476,-0.392 0.496,-0.357C0.516,-0.322 0.526,-0.284 0.526,-0.241C0.526,-0.194 0.515,-0.152 0.495,-0.115C0.474,-0.078 0.446,-0.048 0.41,-0.027C0.375,-0.006 0.335,0.005 0.292,0.005ZM0.289,-0.068C0.319,-0.068 0.346,-0.076 0.37,-0.09C0.394,-0.104 0.413,-0.124 0.427,-0.149C0.441,-0.174 0.448,-0.203 0.448,-0.234C0.448,-0.264 0.441,-0.291 0.427,-0.316C0.413,-0.341 0.394,-0.361 0.37,-0.376C0.346,-0.391 0.319,-0.398 0.29,-0.398C0.259,-0.398 0.231,-0.391 0.207,-0.376C0.182,-0.361 0.163,-0.342 0.149,-0.317C0.135,-0.292 0.128,-0.265 0.128,-0.235C0.128,-0.203 0.135,-0.175 0.149,-0.15C0.163,-0.125 0.182,-0.105 0.206,-0.091C0.23,-0.076 0.258,-0.068 0.289,-0.068Z" style="fill-rule:nonzero;"/>
                            </g>
                            <g transform="matrix(44.2012,0,0,44.2012,2536.92,85.7089)">
                            </g>
                        </g>
                        <g transform="matrix(0.325,0,0,0.325,1930.98,48.5)">
                            <g transform="matrix(44.2012,0,0,44.2012,2450.73,85.7089)">
                                <path d="M0.093,-0L0.069,-0.058L0.305,-0.323C0.316,-0.335 0.328,-0.35 0.34,-0.366C0.352,-0.382 0.364,-0.398 0.375,-0.416C0.386,-0.434 0.395,-0.451 0.402,-0.469C0.409,-0.487 0.412,-0.503 0.412,-0.52C0.412,-0.544 0.407,-0.565 0.396,-0.582C0.386,-0.6 0.37,-0.613 0.351,-0.622C0.331,-0.631 0.308,-0.636 0.282,-0.636C0.259,-0.636 0.237,-0.631 0.215,-0.62C0.193,-0.61 0.173,-0.593 0.155,-0.571C0.137,-0.549 0.123,-0.521 0.113,-0.487L0.051,-0.524C0.063,-0.565 0.081,-0.599 0.104,-0.627C0.127,-0.654 0.155,-0.675 0.187,-0.689C0.219,-0.703 0.253,-0.71 0.29,-0.71C0.329,-0.71 0.363,-0.702 0.394,-0.686C0.425,-0.67 0.449,-0.648 0.467,-0.62C0.485,-0.592 0.494,-0.56 0.494,-0.523C0.494,-0.507 0.492,-0.491 0.488,-0.475C0.485,-0.459 0.479,-0.443 0.472,-0.427C0.465,-0.411 0.456,-0.394 0.446,-0.378C0.435,-0.361 0.423,-0.344 0.41,-0.327C0.396,-0.31 0.381,-0.292 0.364,-0.273L0.163,-0.049L0.151,-0.075L0.516,-0.075L0.516,-0L0.093,-0Z" style="fill:rgb(194,81,38);fill-rule:nonzero;"/>
                            </g>
                            <g transform="matrix(44.2012,0,0,44.2012,2470.49,85.7089)">
                                <path d="M0.306,0.01C0.251,0.01 0.205,-0.004 0.167,-0.033C0.128,-0.062 0.099,-0.103 0.079,-0.156C0.058,-0.21 0.048,-0.275 0.048,-0.35C0.048,-0.425 0.058,-0.49 0.079,-0.544C0.099,-0.597 0.128,-0.638 0.167,-0.667C0.205,-0.696 0.251,-0.71 0.306,-0.71C0.36,-0.71 0.406,-0.696 0.445,-0.667C0.483,-0.638 0.513,-0.597 0.533,-0.544C0.553,-0.49 0.564,-0.425 0.564,-0.35C0.564,-0.275 0.553,-0.21 0.533,-0.156C0.513,-0.103 0.483,-0.062 0.445,-0.033C0.406,-0.004 0.36,0.01 0.306,0.01ZM0.306,-0.063C0.363,-0.063 0.408,-0.088 0.439,-0.138C0.47,-0.188 0.485,-0.258 0.485,-0.35C0.485,-0.442 0.47,-0.512 0.439,-0.562C0.408,-0.612 0.363,-0.637 0.306,-0.637C0.248,-0.637 0.204,-0.612 0.172,-0.562C0.141,-0.512 0.126,-0.442 0.126,-0.35C0.126,-0.258 0.141,-0.188 0.172,-0.138C0.204,-0.088 0.248,-0.063 0.306,-0.063Z" style="fill:rgb(194,81,38);fill-rule:nonzero;"/>
                            </g>
                            <g transform="matrix(44.2012,0,0,44.2012,2493.07,85.7089)">
                                <path d="M0.093,-0L0.069,-0.058L0.305,-0.323C0.316,-0.335 0.328,-0.35 0.34,-0.366C0.352,-0.382 0.364,-0.398 0.375,-0.416C0.386,-0.434 0.395,-0.451 0.402,-0.469C0.409,-0.487 0.412,-0.503 0.412,-0.52C0.412,-0.544 0.407,-0.565 0.396,-0.582C0.386,-0.6 0.37,-0.613 0.351,-0.622C0.331,-0.631 0.308,-0.636 0.282,-0.636C0.259,-0.636 0.237,-0.631 0.215,-0.62C0.193,-0.61 0.173,-0.593 0.155,-0.571C0.137,-0.549 0.123,-0.521 0.113,-0.487L0.051,-0.524C0.063,-0.565 0.081,-0.599 0.104,-0.627C0.127,-0.654 0.155,-0.675 0.187,-0.689C0.219,-0.703 0.253,-0.71 0.29,-0.71C0.329,-0.71 0.363,-0.702 0.394,-0.686C0.425,-0.67 0.449,-0.648 0.467,-0.62C0.485,-0.592 0.494,-0.56 0.494,-0.523C0.494,-0.507 0.492,-0.491 0.488,-0.475C0.485,-0.459 0.479,-0.443 0.472,-0.427C0.465,-0.411 0.456,-0.394 0.446,-0.378C0.435,-0.361 0.423,-0.344 0.41,-0.327C0.396,-0.31 0.381,-0.292 0.364,-0.273L0.163,-0.049L0.151,-0.075L0.516,-0.075L0.516,-0L0.093,-0Z" style="fill:rgb(194,81,38);fill-rule:nonzero;"/>
                            </g>
                            <g transform="matrix(44.2012,0,0,44.2012,2512.83,85.7089)">
                                <path d="M0.107,-0L0.401,-0.654L0.414,-0.627L0.039,-0.627L0.039,-0.7L0.461,-0.7L0.474,-0.639L0.192,-0L0.107,-0Z" style="fill:rgb(194,81,38);fill-rule:nonzero;"/>
                            </g>
                            <g transform="matrix(44.2012,0,0,44.2012,2535.64,85.7089)">
                            </g>
                        </g>
                    </g>
                    <path d="M2766.26,60.625L2766.26,81.875C2766.26,87.739 2761.5,92.5 2755.64,92.5L2626.89,92.5C2621.02,92.5 2616.26,87.739 2616.26,81.875L2616.26,60.625C2616.26,54.761 2621.02,50 2626.89,50L2755.64,50C2761.5,50 2766.26,54.761 2766.26,60.625Z" style="fill:none;stroke:rgb(194,81,38);stroke-width:0.9px;"/>
                </g>
                <path d="M2776.26,55L2776.26,85C2776.26,93.279 2769.54,100 2761.26,100L2431.26,100C2422.98,100 2416.26,93.279 2416.26,85L2416.26,55C2416.26,46.721 2422.98,40 2431.26,40L2761.26,40C2769.54,40 2776.26,46.721 2776.26,55Z" style="fill:none;stroke:rgb(194,81,38);stroke-width:2.58px;"/>
            </g>
        </g>
    </g>
</svg>
